<?xml version="1.0" standalone="no"?>
<!DOCTYPE svg PUBLIC "-//W3C//DTD SVG 1.1//EN" "http://www.w3.org/Graphics/SVG/1.1/DTD/svg11.dtd" >
<svg xmlns="http://www.w3.org/2000/svg">
<metadata>Generated by IcoMoon</metadata>
<defs>
<font id="icomoon" horiz-adv-x="1024">
<font-face units-per-em="1024" ascent="960" descent="-64" />
<missing-glyph horiz-adv-x="1024" />
<glyph unicode="&#x20;" horiz-adv-x="512" d="" />
<glyph unicode="&#xe602;" glyph-name="botiquin" d="M342.084 743.947c0 33.008 21.755 90.772 74.268 90.772h194.297c66.766 0 82.52-64.516 82.52-123.78h24.756v16.504c126.781 0 123.78 9.752 123.78-24.756 56.264-5.251 120.029-75.768 120.029-144.785v-334.582c0-57.014-42.010-110.277-86.271-132.032-46.511-23.256-21.755 0-37.509-33.008h-120.029v12.753h-408.85v-12.753h-123.78v21.005c-94.523 21.755-123.78 105.026-123.78 198.048v235.558c0 167.291 99.024 175.543 117.779 192.047 15.754 14.253-0.75 22.505 18.755 22.505 96.023 0 109.527 9.752 111.777-16.504h33.008v33.008zM475.616 555.651c-225.055-60.015-135.783-387.095 81.020-334.582 81.020 19.505 149.286 101.275 128.281 204.8-17.254 82.52-102.775 158.289-209.301 130.532zM278.318 599.912v-412.601c0-39.010 33.758-33.758 33.758 0v412.601c0 34.508-33.758 37.509-33.758 0zM180.044 604.413v-420.853c0-9.002 3.751-14.253 6.752-19.505 24.756-4.501 27.007 0.75 27.007 24.006v412.601c0 21.755-3.751 27.757-27.007 23.256-3.751-5.251-7.502-10.503-7.502-19.505zM724.677 599.912v-412.601c0-37.509 33.758-35.259 33.758 0v417.102c0 28.507-33.758 33.008-33.758-4.501zM823.701 596.161v-404.349c0-39.76 33.758-43.511 33.758-4.501v412.601c0 38.259-33.758 36.009-33.758-3.751zM479.367 443.124l-0.75-15.754h-54.013v-76.519h53.263l1.5-51.763h72.018l1.5 51.763h54.013v76.519h-52.513l-2.251 52.513-72.768 1.5v-38.259z" />
<glyph unicode="&#xe900;" glyph-name="aire" horiz-adv-x="1448" d="M632.981 184.981v597.471c0 37.161-4.955 63.587 9.91 87.123 13.213 21.058 33.445 32.619 54.090 35.51h19.819c28.077-3.716 53.677-23.535 61.523-58.632 7.432-34.271 2.477-518.194 2.477-589.626 0-75.974-7.019-60.284 24.361-92.903 45.832-47.071 40.052-134.194-8.258-178.374-86.297-78.452-220.49-15.277-220.49 82.581 0 41.29 11.561 105.29 56.155 117.265zM796.077 782.865v-526.039c0-17.342 9.084-35.923 25.6-35.923 12.387 0 14.865 8.258 25.6 15.277v76.387c11.561-7.845 21.058-21.058 30.555-25.6 15.277-7.019 30.555-3.303 30.555 25.6 0 17.342-38.813 44.594-50.374 56.981-18.994 20.645-11.148 43.355-11.148 96.206 18.168-4.955 42.529-26.013 61.11-35.923 0-42.529-11.974-86.71 25.6-86.71 25.187 0 20.232 26.426 20.232 51.2 6.194-3.303 66.477-50.787 66.477 4.955 0 18.168-14.865 16.103-25.6 30.555 38.813 0 40.877 6.606 40.877 30.555 0 33.858-65.239 9.91-92.077 9.91-21.471 0-28.077 8.258-42.529 18.581-11.561 8.258-26.839 18.168-33.445 27.665 5.368 3.303 66.065 40.877 66.477 40.877 25.6 0 92.077-57.394 92.077 0 0 18.168-22.71 23.535-35.923 30.555 18.581 25.187 35.923 9.084 35.923 45.832 0 34.271-38.813 11.561-51.2 4.955 0.826 9.91 18.581 51.2-20.232 51.2-44.181 0-6.606-100.748-107.355-127.587 0 51.613-7.845 80.929 11.148 101.161 18.581 20.232 42.942 31.794 50.374 61.935-6.606 7.432-12.8 14.039-20.232 20.232-26.839-6.194-21.884-12.8-40.877-25.6v92.077c-30.142 20.232-51.2 19.406-51.2-30.555zM685.006 139.561c-16.103-19.819-40.465-26.839-37.574-66.065 5.368-71.845 107.355-68.955 116.852-4.542 5.781 39.639-15.277 50.374-37.574 67.716v354.684c0 25.187 12.387 103.639-18.168 106.942-36.335 3.716-23.948-64-23.948-91.665v-367.484z" />
<glyph unicode="&#xe901;" glyph-name="cocina" horiz-adv-x="1448" d="M489.29 776.671c19.819 0 36.335-16.103 36.335-36.335 0-19.819-16.103-36.335-36.335-36.335-19.819 0-36.335 16.103-36.335 36.335 0 19.819 16.103 36.335 36.335 36.335zM419.923 645.368l9.084-0.413 596.232 0.826c-0.413 36.335 5.781 125.11-7.432 151.948-23.123 47.071-76.387 36.748-124.284 36.748-106.116 0-213.058-1.239-318.761 0h-10.323c-29.729-1.652-62.348-0.413-92.49-0.413-30.968 0-53.265-5.781-66.89-23.535-17.342-22.71-15.69-41.703-15.69-75.148 0-29.316-1.239-61.11 0-90.013l30.555-0.413zM450.065 100.335c4.129-2.89 14.865-2.065 19.819-2.065 6.606 0 13.213 0.413 20.232 0.413 13.213 0 26.839-0.826 40.052-0.413 33.032 0.826 233.29-2.065 244.852 0.826l0.413 64c0 14.452 2.065 15.277-2.477 19.406l-229.574 0.413c-83.406-4.542-73.084 64-73.084 115.2 0 39.226-2.477 164.335 1.239 185.806 3.303 18.581 14.039 32.206 24.361 39.226 16.103 11.561 28.49 10.735 51.2 10.735 84.645 0 164.335 0 247.742 0 17.755 0 48.31 1.652 74.735 0.826h155.665v66.065c-9.084 1.652-61.523 0.826-76.387 0.826-184.981 0-374.916-2.065-559.484 0-2.477-136.671 0-283.252 0-421.987 0-35.097 19.406-85.058 60.697-79.69zM1002.942 448c1.652-14.039 16.929-10.323 31.381-10.323 11.561 0 72.671-1.652 78.865 1.652 7.432 4.129 6.606 24.774 5.368 35.51-1.652 14.865-16.929 10.735-32.206 10.735-77.626 0-89.6 9.91-82.994-37.574zM1280.413 348.903c-2.065 36.335-56.568 52.026-94.142 60.284-43.768 9.497-92.077 13.213-138.735 13.213-67.303 0-225.858-9.91-231.226-73.497h463.69zM820.439 766.348c30.555 11.148 47.071-37.161 16.516-47.484-31.794-10.735-47.484 36.335-16.516 47.484zM597.471 766.348c33.032 10.735 45.832-40.052 14.039-48.31s-46.245 37.987-14.039 48.31zM926.142 766.761c34.684 8.671 43.355-42.529 11.974-49.135-33.445-6.606-41.29 41.703-11.974 49.135zM711.845 765.935c14.452 5.368 28.077-4.129 31.794-14.452 5.368-15.277-4.129-29.316-15.69-33.032-31.381-9.91-48.723 35.51-16.103 47.484zM815.897 307.613c-11.974 2.065-28.49 7.432-41.29 11.148-23.948 6.606-23.123 7.845-23.123-18.581 0-36.335 8.258-19.406 64.413-40.052 0.826-36.748 0-73.91 0-110.245 0-40.465-2.89-68.542 23.535-87.535 24.361-17.342 64.826-11.974 99.097-11.974 35.923 0 75.561 1.652 110.245 0 35.097-1.652 74.735 0 110.658 0s72.671-5.781 98.271 12.387c25.187 17.755 22.297 50.374 22.297 88.361 0 36.335 0 72.671 0 109.006 9.497 2.89 21.471 6.194 32.206 9.084 7.019 1.652 25.6 4.542 29.729 10.735 3.716 6.194 3.303 34.271 0.413 40.465l-10.323 1.239c-1.239-0.413-6.606-2.065-8.258-2.477l-43.768-11.974-0.413 18.168h-464.103l-0.413-18.168z" />
<glyph unicode="&#xe902;" glyph-name="directv" horiz-adv-x="1448" d="M894.761 829.11c49.961-71.432 79.277-158.142 79.277-251.871 0-242.787-196.542-439.329-439.329-439.329-30.968 0-61.11 3.303-90.426 9.497l450.477 682.116zM648.671 526.865c19.819 0 35.923-16.103 35.923-35.923s-16.103-35.923-35.923-35.923c-19.819 0-35.923 16.103-35.923 35.923s16.103 35.923 35.923 35.923zM266.323 396.387c-95.381 236.594 53.265 471.123 309.265 479.794 3.716 0 14.039-0.413 17.755-0.826 21.058-1.239 36.748-19.819 34.684-41.29s-20.645-37.574-42.116-36.335c-195.303 10.323-325.368-179.2-250.219-366.245 9.084-19.406 0.826-42.529-18.581-52.439s-42.116-2.065-51.2 17.342zM388.542 449.239c-15.277 76.8-22.297 145.755 31.794 212.645 52.439 64.413 94.555 76.387 170.529 84.645 15.277 0 27.252-12.8 26.839-28.49s-13.626-28.077-28.903-27.665c-41.703-4.542-64-6.606-99.51-35.923-63.587-52.439-62.761-113.961-47.897-187.045 4.542-14.452-3.303-30.555-18.168-35.923-14.452-4.955-30.142 2.477-35.097 17.342zM494.658 483.51c-8.671 78.039 18.168 146.994 102.4 156.49 11.561 0.413 21.058-8.671 21.471-20.232s-9.084-21.471-20.645-22.297c-54.503-6.194-67.716-56.155-61.935-104.052 2.477-11.561-4.955-22.71-16.103-25.6-11.561-2.89-22.71 4.129-24.774 15.69zM836.129 182.503h149.471v-39.226h-49.961v-119.742h-49.135v119.742h-49.961v39.226zM991.794 182.503h51.2l35.923-114.374 35.097 114.374h49.961l-59.045-158.968h-53.265l-59.871 158.968z" />
<glyph unicode="&#xe903;" glyph-name="estacionamiento" horiz-adv-x="1448" d="M843.974 251.458l-0.826-28.49c-39.226-6.194-174.245-9.91-208.103 1.239-7.845 44.594 11.148 35.097 89.6 36.335 18.994 0.413 87.948 0.413 107.768-3.303 10.735-2.065 7.019 0 11.148-5.781zM576.826 33.445c3.716 7.432 2.89 11.974 2.89 21.471 0 7.019 0 14.039 0 21.058l316.284-0.413c-20.232-61.935 27.665-100.748 87.123-95.794 62.348 5.368 62.761 71.019 51.613 126.348 15.69 6.606 27.252 15.277 35.51 26.013 7.432 9.497 18.168 24.361 24.774 37.574 30.968 64 32.206 134.194-7.845 194.065-14.452 21.884-40.465 48.723-62.348 59.458-0.826 45.006-5.368 77.213-19.819 117.265-14.039 38.813-29.729 56.155-53.677 82.581-46.245 50.787-136.258 65.239-205.626 67.303-40.465 1.239-85.884-4.129-122.632-13.626-42.116-11.148-59.458-22.71-87.535-48.723-23.123-21.471-40.877-42.529-56.155-80.103-25.187-61.523-15.69-82.581-23.535-112.723-91.252-9.497-180.852-196.955-60.284-314.219 12.8-12.387 28.077-17.342 39.639-28.903-2.065-25.187-7.432-45.419 3.716-68.955 32.206-68.955 128.826-51.2 138.323 10.323zM715.148 885.677c-37.161-9.084-92.077-40.465-125.523-57.806-40.052-20.645-84.232-40.465-125.523-59.045-41.703-18.994-82.581-39.226-123.871-59.045-21.058-10.323-40.877-20.645-60.697-31.381-21.884-11.974-35.097-34.684-28.077-59.458 6.194-21.884 24.774-36.748 52.852-36.748 28.49 0 272.929 124.284 315.045 144.516 21.058 10.323 40.877 20.645 62.348 30.142 37.574 16.929 40.877 25.187 68.542 14.452 41.29-16.103 85.471-37.161 125.11-57.394 40.877-20.645 84.232-39.226 125.935-59.045 41.29-19.819 82.581-38.813 123.871-59.045 23.123-11.148 42.529-21.884 68.955-5.368 16.516 10.323 34.684 34.684 21.471 63.174-10.323 21.884-26.013 28.077-50.374 40.052-78.865 38.4-170.942 75.974-250.219 117.265-20.232 10.323-41.29 20.232-62.348 30.142-33.445 16.103-94.142 54.916-137.084 44.181zM600.774 242.374c-16.516-78.039-135.845-48.723-115.613 29.316 6.194 24.361 38.813 49.961 71.845 43.768 28.49-5.368 50.787-38.813 43.768-72.671zM873.703 253.935c-4.955 74.323 113.548 87.535 118.503 4.542 2.065-35.923-23.535-60.284-56.981-61.935s-59.045 26.013-61.523 57.394zM632.568 295.639c-5.781 24.361 26.013 24.361 36.748 24.774l127.174 0.826c20.232-0.413 45.832 2.477 49.135-16.516 3.716-23.948-18.168-23.123-37.574-23.948l-127.174-0.826c-17.755 0.413-44.181-1.239-48.31 15.69zM960.413 416.206h-445.935c-0.413 70.194 29.729 151.123 84.645 184.981 37.574 23.123 92.49 28.49 137.084 28.49 73.084-0.413 125.523-12.8 170.116-48.723 31.381-25.6 61.935-102.4 54.503-164.748z" />
<glyph unicode="&#xe904;" glyph-name="parrilla" horiz-adv-x="1448" d="M353.445 441.394v0zM748.594 181.265c0 0.413 0 0.826 0 1.239 35.097 2.065 68.542 7.432 94.555 16.516 14.865 5.368 13.626 8.258 30.555 9.497l52.852-125.523c9.084-21.471 18.581-42.116 26.839-62.348 23.948-57.394 23.535-57.394 63.174-48.31 10.735 44.594-15.277 77.213-42.116 140.8-9.084 21.471-16.929 37.987-25.6 59.045-6.606 16.516-21.884 45.832-26.013 63.174 68.129 36.335 104.465 85.058 137.91 147.406 10.735 19.819 12.8 14.865 35.51 22.71 67.303 23.948 75.561 84.232 35.097 105.29-35.097 18.581-39.639 19.406-48.723 9.91 9.497 45.419-79.69 82.168-132.542 97.032-147.819 41.703-405.058 40.465-543.794-30.968-18.581-9.91-53.265-32.206-53.265-58.219 0-1.239 0-2.065 0-3.303 0 0 0 0.413 0 0.413-16.929-4.129-38.4-11.148-49.961-21.471-24.361-21.884-22.297-63.587 24.774-88.774 23.123-12.387 34.684-7.432 46.658-29.316 9.91-17.755 14.452-29.316 25.6-45.832 31.794-47.897 71.845-77.626 118.503-109.006-17.755-32.619-98.271-222.555-98.271-236.181 0-11.974 2.065-12.387 4.542-22.297 47.484-11.148 41.703-5.368 89.6 110.658l52.852 125.523c31.381-14.865 76.387-23.535 123.045-26.013l-4.542-137.084c-0.413-16.516 12.387-30.142 28.903-30.555s30.142 12.387 30.555 28.903c0 0 4.542 137.91 4.542 137.91zM424.877 533.471c16.929-24.774 42.529-32.206 75.974-40.052v80.103c-33.032-7.845-59.045-15.277-75.974-40.052zM941.832 493.419c29.316 2.477 66.89 14.865 80.103 40.052-8.258 15.69-11.148 17.755-31.794 26.426-14.865 6.194-27.252 9.91-44.181 13.626l-4.542-80.103zM839.432 506.632v-31.381c24.774 0 47.897 8.258 71.432 9.084v98.271c-21.471 0.413-45.419 8.258-66.89 9.084 0-33.858-4.542-49.548-4.542-84.645zM745.703 511.174v-40.052h62.348v124.697h-57.806c0-33.858-4.542-49.548-4.542-84.645zM536.361 582.606l-4.542-98.271c28.903 0 50.374-8.258 75.974-9.084v116.026c-21.884-0.413-49.548-8.258-71.432-9.084zM638.761 511.174c0-49.135-11.148-40.052 75.974-40.052v124.697h-71.432c0-33.858-4.542-49.548-4.542-84.645zM865.445 864.619c0-33.858-56.155-70.194-56.155-134.194 0-62.348 68.955-71.845 49.135-11.561-6.606 20.645-2.477 33.858 8.258 53.265 17.755 32.206 46.245 56.981 46.245 100.748 0 22.71-27.665 51.613-46.658 50.374-48.31-4.129-1.239-52.026-1.239-59.045zM744.465 864.619c0-33.858-56.155-70.194-56.155-134.194 0-62.348 68.955-71.845 49.135-11.561-6.606 20.645-2.477 33.858 8.258 53.265 17.755 32.206 46.245 56.981 46.245 100.748 0 50.787-78.039 68.129-67.716 23.535 3.716-16.516 20.232-16.516 20.232-32.206zM640.826 864.619c0-33.858-56.155-70.194-56.155-134.194 0-45.419 42.529-71.019 52.852-35.923 2.89 9.91 0.826 10.735-3.716 24.361-6.606 20.645-2.477 33.858 8.258 53.265 17.755 32.206 46.245 56.981 46.245 100.748 0 50.787-78.039 68.129-67.716 23.535 3.716-16.516 20.232-16.516 20.232-32.206zM411.665 528.929c0 45.419 78.039 60.697 131.303 69.368 113.961 18.994 244.439 19.819 357.987 0.413 184.155-30.968 176.723-101.987 3.716-130.477-26.426-4.542-60.697-10.323-87.123-11.148-36.748-0.826-59.871-4.129-93.729-4.129-54.090 0-312.155 14.039-312.155 75.974zM353.858 441.394c-26.426 7.019-23.948 31.381-4.542 44.594 0-23.535 4.129-24.774 4.542-44.594zM1080.568 436.852c6.606 13.626 9.084 28.49 9.084 49.135 15.69-1.239 22.297-7.019 22.297-22.297 0-18.581-13.213-25.187-31.381-26.839z" />
<glyph unicode="&#xe905;" glyph-name="piscina" horiz-adv-x="1448" d="M294.813 222.968c26.839 8.671 50.787 21.471 80.103 16.516 57.806-9.497 54.503-40.052 128-11.974 66.065 25.187 61.935 22.297 126.761 0 58.219-19.819 85.884 16.516 138.735 15.277 48.723-1.239 80.516-35.923 134.606-20.645 56.568 16.103 64.826 33.858 132.129 13.213 62.348-19.406 68.542-23.123 131.303-0.826 20.645 7.432 35.097 9.084 46.245 8.258v70.606c-11.148 0.826-24.774-0.826-45.006-8.258-64.413-22.71-69.781-18.168-133.368 0.826-65.652 19.819-73.497 3.303-130.065-13.213-54.090-15.69-85.058 17.342-132.955 20.232-49.961 2.89-85.058-31.794-135.432-16.929-63.174 18.994-59.458 30.142-127.174 3.716-75.561-29.729-68.542-4.129-129.652 9.084-30.555 6.606-55.742-6.194-83.819-15.277v-70.606zM348.49 541.316l327.432-0.413-0.413-90.013-327.432 0.413 0.413 90.013zM293.161 330.735c3.303 0.413 50.374 27.665 54.090 30.968 2.89 9.084 0 23.123 1.239 33.858l327.432 0.413 0.413-17.755c22.71 2.065 30.968 2.89 54.916 0.826 1.652 36.748 0 77.213 0 114.374 0 18.994 1.239 158.968-0.413 170.942-3.716 31.381-54.916 38.4-54.916-10.735 0-17.342 1.239-39.639-0.413-56.568h-327.432c-2.065 18.994 0.413 43.768-0.413 62.761-0.413 17.755-13.626 33.445-33.858 28.49-19.406-4.542-21.058-20.645-21.058-42.116 0-104.877-1.239-210.581 0-315.045zM967.432 482.684c-10.323-11.561-195.303-101.987-208.516-113.961 49.135 6.606 46.658 8.671 88.774-11.148 37.987-17.755 53.677-5.781 87.535 7.432 84.232 32.619 95.381-44.594 178.787-3.716-4.129 24.361-85.471 182.503-101.574 228.335 7.019 5.781 49.548 19.819 61.935 24.774 13.213 5.368 60.284 18.994 66.065 23.535 14.452 11.974 11.561 52.852-24.361 49.548-34.271-3.303-126.761-42.116-164.335-57.394-12.8-5.368-21.471-7.019-26.426-19.819-9.91-26.013 33.858-101.161 42.116-127.587zM1137.135 557.006c-80.929-15.69-61.11-143.69 21.884-129.652 81.342 13.626 60.284 145.342-21.884 129.652zM294.813 105.29c27.665 9.084 52.439 22.71 83.406 16.103 59.871-12.8 52.852-37.987 125.935-10.735 66.89 25.187 60.697 20.232 126.348-0.413 58.632-18.581 82.581 15.277 134.606 15.277 47.897 0 83.406-34.684 134.606-21.471 53.677 13.626 65.239 35.097 129.239 16.103 63.174-18.581 68.129-27.252 134.606-4.129 16.929 5.781 32.206 11.974 49.548 9.91v70.194c-10.735 0.826-23.948-0.826-43.768-7.432-61.935-21.471-68.542-21.058-131.716-0.826-63.174 20.645-73.91 5.781-129.239-11.148-58.632-18.168-85.471 15.69-136.671 18.994s-84.232-33.032-137.497-16.516c-66.065 20.645-59.045 28.49-128.413 2.065-75.148-28.49-67.716-1.239-128.413 10.735-30.142 5.781-54.503-7.019-82.168-16.103v-70.606z" />
<glyph unicode="&#xe906;" glyph-name="rampa" horiz-adv-x="1448" d="M851.819 398.039c26.426-47.071 55.329-95.381 82.581-142.452 4.542-7.845 25.6-42.942 27.252-47.897 6.606 1.652 74.323 41.703 82.994 46.658 4.955 2.89 9.084 5.368 13.626 7.845 4.955 2.89 9.497 5.368 13.626 8.258 18.994 14.452 12.8 47.484-13.213 51.613-13.213 2.065-22.297-5.368-30.968-10.735-4.955-2.89-9.084-5.368-13.626-7.845-3.716-2.065-10.735-6.606-14.039-7.845-3.303 4.129-44.594 76.387-48.31 82.581-7.845 14.039-15.69 27.665-23.948 41.29l-21.058 36.335c-3.303 5.781-1.652 1.239-4.955 3.716-2.89 18.168-15.277 31.381-30.968 35.51-11.974 2.89-110.245 1.652-130.477 1.652-21.058 0-46.245-1.239-66.89 0v49.961c13.213 1.239 78.865 0 97.445 0 14.865 0 34.684-1.239 49.135 0 13.213 1.239 23.535 11.561 23.535 25.6 0 13.626-10.323 24.361-22.71 25.6-9.497 0.826-82.168 0-98.271 0-14.865 0-34.684-1.239-49.135 0-0.413 18.581 0 37.161 0 55.742 0 19.819 1.652 33.445-7.019 49.548-11.561 21.471-41.703 41.703-75.974 27.665-13.213-5.368-23.535-14.865-29.729-26.013-9.084-16.103-7.845-28.077-7.845-48.723v-168.465c0-31.381-3.716-62.348 30.142-82.168 9.497-5.781 21.884-8.671 33.445-7.845 3.303 0.413 9.084 2.065 11.561 1.239 14.039-2.89 38.4-1.239 54.503-1.239h113.135c17.755 0 38.813 0.826 56.155 0zM1068.594 214.71v-188.697h-698.632l281.6 75.974c-38.4-0.826-76.8 7.019-112.31 23.535-14.452 6.606-28.903 14.865-40.465 23.535-27.252 20.232-42.116 34.684-62.761 63.587-29.729 40.877-45.006 93.729-45.006 147.406 0 50.787 17.342 99.51 39.639 133.781 5.781 9.084 11.974 17.755 18.168 25.187 6.606 7.845 13.626 16.103 20.645 22.297 9.497 8.671 37.574 33.032 49.548 36.748v-57.394c0-5.781-4.542-7.019-7.432-9.497-10.735-9.91-13.213-11.561-23.948-24.774-80.516-98.271-50.374-244.852 55.742-305.961 111.897-64 248.981-12.8 294.4 103.639 2.89 7.432 5.368 15.69 7.845 24.774 1.239 4.542 4.129 25.187 4.955 26.839l35.51-60.284c2.065-4.129-0.413-7.845-2.065-12.387-21.058-54.090-62.348-100.748-113.135-129.239l298.116 80.516zM605.729 889.806c-34.271-4.129-63.587-33.858-59.045-73.91 3.716-33.032 34.684-63.174 73.91-58.219 33.445 4.542 63.174 34.684 57.806 74.323-4.542 33.445-34.271 62.348-73.084 57.806z" />
<glyph unicode="&#xe907;" glyph-name="wifi" horiz-adv-x="1448" d="M299.355 633.806c218.839 344.774 662.297 370.787 912.103 46.245 3.716-4.955 12.387-18.581 15.69-23.948 18.168-28.903 8.671-66.477-21.058-83.819s-68.542-8.258-86.71 20.645c-169.29 263.432-536.361 255.174-708.955-16.929-16.516-29.729-54.503-40.877-85.471-24.774-30.555 16.103-42.116 53.265-25.6 82.994zM469.058 133.781h45.832l16.516-87.535 24.361 87.535h45.419l24.361-87.535 16.516 87.535h45.832l-34.684-156.903h-47.484l-27.665 98.684-27.252-98.684h-47.484l-34.684 156.903zM773.781 405.884c52.026 0 94.555-42.116 94.555-94.555 0-52.026-42.116-94.555-94.555-94.555-52.026 0-94.555 42.116-94.555 94.555 0 52.026 42.116 94.555 94.555 94.555zM706.065 133.781h48.723v-156.903h-48.723v156.903zM778.323 51.2h63.174v-33.858h-63.174v33.858zM862.555 133.781h119.742v-33.858h-71.019v-27.252h60.697v-31.794h-60.697v-64h-48.723v156.903zM1010.374 133.781h48.723v-156.903h-48.723v156.903zM471.948 507.871c89.6 96.206 177.135 172.594 320.826 164.335 139.561-8.258 196.955-54.090 283.252-149.884 19.819-28.077 12.387-66.065-16.516-85.058s-67.716-11.974-87.535 16.103c-31.794 35.097-36.748 46.658-79.277 69.368-130.89 69.368-230.813 8.258-318.761-86.297-20.232-27.252-59.871-33.445-87.948-13.626s-34.684 58.219-14.039 85.471z" />
<glyph unicode="&#xe908;" glyph-name="desayuno2" horiz-adv-x="1448" d="M1000.052 254.348c2.065 25.6 11.148 54.916 16.103 82.168 4.542 25.6 7.432 64 7.432 91.252 17.755-8.671 82.994-15.69 72.671-95.794-3.716-30.142-9.084-41.703-29.316-55.329-26.013-17.755-44.181-11.561-66.89-22.297zM803.097 667.252c0-17.755 5.781-23.535 23.535-23.535 25.187 0 14.452 32.619 53.677 59.045 52.439 35.923 209.342 24.361 209.342 128.413 0 33.445 6.194 51.613-28.077 51.613-31.794 0 4.542-44.594-35.923-81.342-22.71-20.645-55.329-22.71-86.71-30.555-49.548-11.974-135.019-45.419-135.019-104.052zM681.29 676.748c0-29.316 32.619-37.987 47.071 9.084 14.865 48.31 48.723 61.523 104.052 78.865 54.916 17.342 144.516 36.748 144.516 104.052 0 30.968-8.671 56.155-37.574 56.155-38.813 0 11.561-49.135-29.316-83.406-24.774-21.058-58.632-26.426-94.555-36.748-59.458-17.342-134.194-56.155-134.194-128.413zM484.335 418.684c0-47.484 7.019-102.4 14.452-144.929 3.303-18.994 9.084-45.006 14.452-65.239 4.542-16.929 16.103-47.897 17.755-66.477-77.213 51.613-122.632 158.968-138.323 255.587-2.89 18.581-4.129 45.006-6.194 59.871-3.303 25.187 3.716 35.923 3.716 64.413h107.768c-0.413-20.232-6.606-30.142-8.671-47.484-2.89-21.471-5.368-34.684-5.368-55.742zM301.419 488.877c0-119.329 24.361-301.006 106.529-386.065 12.8-12.8 24.361-21.884 34.271-36.335-30.555 0-123.871-5.368-140.8-28.077 37.574-51.613 510.761-37.987 596.232-28.903 42.529 4.542 112.31 4.129 130.477 28.903-16.929 23.123-114.787 28.077-140.8 28.077 11.561 17.342 51.2 54.090 67.303 82.994 3.303 6.194 4.955 11.561 7.432 15.69 5.781 9.91 15.277 19.406 17.755 15.277l37.574 4.542c188.697 25.6 216.361 187.045 124.284 267.561-21.884 18.994-75.561 45.006-113.961 45.832v79.69h-727.123v-89.187z" />
<glyph unicode="&#xe909;" glyph-name="ropablanca" horiz-adv-x="1448" d="M1046.71 161.445c2.065 27.665 0.413 62.761 0.413 91.252v450.89c0 114.374 31.381 114.787 42.942 136.258-210.994 1.652-425.703 0-637.11 0-32.206 0-72.671 4.955-97.445-9.497-19.819-11.561-33.445-37.987-33.445-71.845l0.413-597.471c235.768 0 475.252-1.239 710.606 0l14.039 0.413zM1070.658 70.194c2.477-3.716-2.065-3.303 8.258-3.716h26.013c11.561 0 24.774-0.826 35.923 0.413 2.065 12.387 2.065 156.077-0.413 163.923l-63.174 0.413c-7.432-0.826-4.542 1.239-6.194-3.303l-0.413-158.555zM180.852 892.697v-49.548c9.497-17.342 7.845-33.445 37.987-56.981 20.232-15.69 47.897-17.755 79.277-15.69 2.477 26.013 11.148 39.226 11.561 46.245-15.69 0.826-44.594-3.303-56.981 3.716-9.91 5.368-24.361 18.994-25.187 34.684-0.826 18.581 4.129 40.877-9.91 50.787-16.516 11.561-28.077 0-36.748-12.8zM1257.703 832v60.697c-5.781 8.258-10.735 18.168-25.6 16.929-11.561-0.826-19.406-9.497-20.645-20.232-3.716-26.839 3.716-53.265-10.323-72.671h-103.639c-26.426-24.361-27.252-76.387-27.252-119.742v-296.052c0-46.245-2.477-100.748 0.413-146.168l69.781 0.413 0.826 514.477c25.187 1.239 63.587-4.542 82.994 7.019 28.903 17.342 27.252 46.658 33.445 55.329zM321.652-26.013h725.058l-0.413 163.51h-725.058l0.413-163.923z" />
<glyph unicode="&#xe90a;" glyph-name="binocular" horiz-adv-x="724" d="M412.614 108.146l-0.206-169.875h-360.805c0 85.454 0 171.114 0.206 256.568 0.206 124.672 43.346 192.787 168.018 193.819 62.955 0.619 324.889-3.922 362.25 1.858l-0.619 221.684c-40.25 6.605-31.787-13.417-29.517 116.828l275.145 24.563-0.619-162.445-96.393 8.050c0.206-49.332 5.367-318.284-2.89-343.26-14.449-44.378-96.393-29.723-144.074-29.929-56.763-0.206-113.525 2.271-171.114-0.619l0.619-32.819c-41.076 19.815-195.47 46.236-192.168-44.172 1.651-42.727 30.136-56.35 73.895-56.144 58.001 0.206 72.037-6.605 118.273 16.1zM201.456 843.998c113.732 18.37 203.52-66.464 218.382-160.793 18.37-115.796-67.29-208.061-163.27-222.304-249.963-36.947-311.266 341.815-55.111 383.303zM851.854 614.263v150.886l94.123-0.619v-184.118l-94.123-0.206v34.058zM314.156 181.834c-39.218-17.751-14.862-77.61 18.783-62.955 32.613 14.036 17.338 79.468-18.783 62.955zM363.694 113.513c55.111 8.463 54.286 67.083-0.413 74.101 13.417-34.47 14.036-37.979 0.413-74.101zM282.369 113.925c-25.182 3.509-40.869 11.765-39.631 39.011 1.032 24.563 14.449 30.549 39.424 34.883-13.829-38.392-14.036-35.709 0.206-73.895zM412.614 108.352v84.422c-41.076 19.815-195.47 46.236-192.168-44.172 1.445-42.727 30.136-56.35 73.895-56.144 58.001 0.206 72.037-6.605 118.273 16.1zM471.234 629.95l1.858 84.835 55.318 0.206-2.064-85.041h-55.111zM314.156 181.628c36.328 16.513 51.396-48.919 18.783-62.955-33.851-14.655-58.001 44.997-18.783 62.955zM282.369 113.719c-25.182 3.509-40.663 11.765-39.631 39.011 0.826 24.769 14.449 30.549 39.424 34.883-14.036-38.599-14.036-35.709 0.206-73.895zM363.694 113.306c13.623 36.122 13.004 39.631-0.413 74.101 54.699-7.018 55.731-65.638 0.413-74.101z" />
<glyph unicode="&#xe90b;" glyph-name="mapa" horiz-adv-x="791" d="M589.576 492.063c-31.651 0-52.441 4.344-77.576 16.756-107.985 53.062-132.81 192.388-46.545 279.273 103.952 104.572 293.857 34.133 293.857-126.293 0-88.436-76.335-169.736-169.736-169.736zM302.545 676.383c0-86.264 10.861-110.468 39.719-184.32 21.721-55.234 71.68-136.223 107.055-184.010 14.274-19.549 26.996-37.236 42.201-56.165l55.234-66.095c5.585-5.585 6.827-6.516 11.792-13.343 33.202-43.132 39.408-13.653 77.265 25.755l86.264 108.606c14.895 19.549 26.065 38.167 39.719 58.647 39.719 60.509 107.985 187.733 107.985 283.617 0 49.959-4.965 89.988-26.376 132.81-31.030 61.13-72.301 103.952-133.43 134.672-74.162 37.236-172.839 37.857-246.691 0.621-32.272-16.136-63.302-36.926-86.575-64.233-24.204-28.858-26.996-29.168-47.476-69.818-12.722-25.445-27.307-68.887-27.307-106.744zM-118.846 280.436l213.799-22.962c29.479-2.482 193.629-22.962 215.971-22.962 0 13.033 4.965 27.617 7.447 40.65l16.446 80.058c11.792 53.372 12.102 30.099-21.721 99.297-4.655 9.619-8.999 20.17-13.033 30.72-5.275 13.343-8.999 29.789-16.136 29.789h-301.615c-33.202 0-37.857-12.412-45.304-38.478-6.516-22.962-12.412-42.201-18.928-64.853-3.413-12.102-36.305-121.639-36.616-131.258zM-202.628-13.11c0-19.549 14.274-27.307 33.513-27.307h421.392c7.137 31.341 13.653 62.681 20.17 95.263l19.859 95.573-381.673 41.581c-16.756 1.552-39.719 3.103-54.303 6.516l-29.789-104.262c-4.655-16.756-9.93-33.823-15.205-51.821-4.034-13.964-13.653-42.512-13.653-55.544zM340.092-40.417h505.173c12.412 0 25.135 11.481 25.135 27.307 0 16.446-21.411 77.576-27.307 102.71l-467.316 50.269c-0.31-10.55-5.896-33.823-8.378-44.063-3.413-14.895-5.585-29.168-9.309-45.304-3.413-15.515-6.516-30.099-9.309-44.994-2.793-13.343-8.688-31.961-8.688-45.925zM687.942 192.31l127.845-14.584c-0.31 11.481-22.962 85.023-27.927 102.090-1.862 5.896-3.103 10.55-4.655 16.446-2.482 8.688-1.552 11.481-7.137 15.825-2.172-8.068-37.236-53.062-42.512-60.199-4.965-6.827-44.063-53.372-45.615-59.268zM394.705 223.651c23.583 0 45.925-6.206 69.198-6.206-1.862 6.827-21.721 29.479-26.686 36.305-6.206 8.068-23.583 29.168-25.755 37.236h-4.344c0-15.825-12.102-52.752-12.722-67.025z" />
<glyph unicode="&#xe90c;" glyph-name="youtube2" horiz-adv-x="1325" d="M530.874 308.656v367.034c7.228-4.016 13.252-7.228 20.882-11.244 4.016-2.008 7.63-3.614 11.244-5.622l252.587-132.116c4.016-2.008 7.228-3.614 11.244-5.622l32.929-17.267c6.827-3.614 14.858-9.236 22.488-11.244v-2.409c-4.417-1.205-17.669-8.031-21.685-10.441-7.228-4.016-14.456-7.63-22.086-11.645-41.763-20.882-89.148-46.984-132.116-68.668-43.369-21.685-88.345-46.984-131.313-68.267-15.26-7.63-29.315-14.858-44.173-22.889zM6.827 514.66c0-71.479-0.402-132.518 5.22-203.595l5.22-63.046c2.008-22.488 4.016-39.755 8.433-59.432 4.016-18.071 9.638-36.141 15.661-50.999 7.228-17.669 13.252-29.716 24.094-44.173 19.677-26.504 51.401-43.771 83.526-53.007 34.936-10.039 78.306-12.449 119.266-15.661 5.22-0.402 11.244 0.402 16.866 0l181.509-6.425c11.244 0 22.488 0 33.33 0 11.645 0 20.48-1.205 33.33-1.205l159.423-1.205c44.976 0 85.534 1.205 130.108 1.205 21.685 0 41.362 1.205 64.251 1.205l32.125 1.205c5.22 0 11.645-0.402 16.866 0 6.024 0.402 8.031 1.205 15.26 1.205 30.519 0 50.598 2.409 78.707 2.409 9.236 0 31.724 2.811 47.787 2.409l30.118 2.008c10.039 1.606 20.48 1.205 30.921 2.409 11.244 1.606 19.275 2.409 29.315 4.417 9.236 2.008 18.071 4.819 25.7 7.63 68.668 25.299 96.778 80.715 112.038 151.793 7.228 33.732 6.827 56.621 10.842 88.345l2.811 46.18c0 7.228 1.205 8.031 1.205 15.26 0.402 31.322 2.409 64.653 2.409 97.983v73.487c0 22.488-1.205 41.763-1.205 63.046 0 12.047-1.205 19.677-1.205 30.921 0 7.228-0.402 10.441-1.205 15.661l-2.811 46.18c-2.811 58.629-14.456 137.738-46.18 184.32-28.913 42.968-74.692 64.251-126.093 70.676-21.685 2.811-68.267 5.622-91.558 6.024-6.425 0-8.031 1.205-15.26 1.205-5.622 0-11.244-0.402-16.464 0.402-17.669 2.409-43.369 1.606-63.448 2.008l-30.921 1.205c-12.449 0-20.48 1.205-32.125 1.205-22.889 0-42.566 1.205-64.251 1.205l-200.784 1.205c-44.574 0-85.133-1.205-128.904-1.205-22.086 0-41.362-1.205-64.251-1.205l-250.177-12.449c-100.794-13.653-142.155-68.267-162.635-165.446-5.22-25.299-7.63-61.038-10.441-87.542-3.614-35.74-6.827-126.093-6.827-158.218z" />
<glyph unicode="&#xe90d;" glyph-name="matafuego" horiz-adv-x="1325" d="M423.655 221.114c8.433 8.433 21.685 11.244 33.33 4.819 1.205 1.205 14.055 0.803 10.441 30.519-6.827 57.023-37.346 172.273-47.385 243.351-5.622 40.157-11.244 115.25 0 150.187s50.196 73.487 93.164 74.29c-29.315-43.771-27.307-2.811-27.307-113.242v-428.875l2.811-4.016 1.205-2.008c31.322-40.96 112.038-40.157 159.021-39.755 51.401 0.803 126.494 6.425 158.62 47.385v352.577c0 112.439 32.125 186.328-89.55 214.036-11.244 2.811-26.504 2.811-37.346 7.63 14.055 18.874 40.157 16.063 70.275 11.244 56.22-8.433 75.896-16.063 123.683-47.787l50.598-35.338c-7.63 27.708-72.282 82.723-100.794 97.983-59.031 31.322-85.534 28.511-170.265 28.511 16.866 70.275 153.801 58.227 203.595 54.212-6.425 12.449-4.016 20.078-18.071 27.708-4.016 2.008-12.449 3.614-22.889 4.016h-47.385c-28.511-1.205-57.826-4.016-68.267-6.425-27.708-6.425-43.771-16.866-63.448-31.322-18.874-14.055-32.527-36.141-33.33-65.857-219.658 0-267.445-96.778-243.351-297.562 7.63-61.038 34.133-160.627 44.574-231.304 4.016-24.897 0-30.519 18.874-40.96l-1.205-2.811zM422.45 198.224c0-40.96 4.819-68.267 4.819-103.605 7.63 3.614 42.566 9.236 54.212 9.236-0.803 33.33-17.267 68.267-18.071 98.786l-40.96-4.016zM489.111 91.809l0.803-51.401c31.322-40.96 112.038-40.157 159.021-39.755 51.401 0.803 126.494 6.425 158.62 47.385v129.305c0-125.691-2.811-124.486-86.337-124.486-45.377 0-193.958-6.827-212.028 5.622-10.441 6.827-16.866 18.874-20.078 32.527v0.803zM905.537 214.287h-0.803c-3.614-28.511-1.205-33.33-14.055-57.023-5.622-11.244-20.882-34.936-28.511-40.157-0.803 14.456-3.614 20.882-6.827 32.527-2.811-4.819-4.016-11.645-7.63-21.685-11.244-27.708-40.157-65.456-2.008-103.605 7.63-7.63 20.882-18.874 32.125-23.693-11.645 47.787-8.433 32.527 11.645 71.479l9.638 22.889c6.425-6.827 4.819-11.645 6.425-19.275l2.008-6.425c0 0 0.803-0.803 0.803-1.205 3.614 8.433 7.63 14.055 11.244 24.897 2.811 9.638 4.016 20.078 2.811 30.519 14.456-6.827 31.322-30.519 37.346-51.401 9.236-29.716 4.016-44.574-3.614-71.479 24.897 11.244 55.416 40.96 57.023 78.707 2.008 36.944-23.693 75.896-43.771 91.558 2.811-17.267 2.811-23.693-4.819-35.338-4.016 5.622-9.236 28.511-22.086 45.779-18.874 24.897-27.307 24.496-36.944 32.527v0z" />
<glyph unicode="&#xe90e;" glyph-name="botiquin_auxilio" horiz-adv-x="1325" d="M463.41 788.932h-0.803c0 38.149 24.897 105.211 85.936 105.211h225.28c77.503 0 95.573-74.692 95.573-143.36h28.511v19.275c146.974 0 143.36 11.645 143.36-28.511 65.456-6.024 139.344-87.944 139.344-167.856v-387.915c0-65.857-48.59-127.699-99.991-152.998-53.81-26.905-25.299 0-43.369-38.149h-139.344v14.858h-473.851v-14.858h-143.36v24.496c-109.628 25.299-143.36 121.675-143.36 229.697v273.067c0 193.958 114.849 203.194 136.533 222.469 18.071 16.464-0.803 26.102 21.685 26.102 111.636 0 127.297 11.244 129.707-19.275h38.149v38.149zM617.211 570.88c-261.020-69.471-157.415-448.954 93.967-387.915 93.967 22.488 173.076 117.258 148.58 237.327-20.078 95.573-119.266 183.517-242.547 151.391v-0.803zM388.317 622.281v-478.268c0-45.377 38.952-38.952 38.952 0v478.268c0 40.157-38.952 43.369-38.952 0zM274.271 627.501v-487.906c0-10.441 4.417-16.464 7.63-22.488 28.511-5.22 31.322 0.803 31.322 27.708v478.268c0 25.299-4.417 32.125-31.322 26.905-4.417-6.024-8.835-12.047-8.835-22.488h0.803zM905.537 622.281v-478.268c0-43.369 38.952-40.96 38.952 0v483.489c0 32.929-38.952 38.149-38.952-5.22zM1020.386 617.864v-468.631c0-46.18 38.952-50.598 38.952-5.22v478.268c0 44.173-38.952 41.763-38.952-4.417zM621.227 440.37l-0.803-18.071h-62.645v-88.747h61.842l1.606-59.834h83.526l1.606 59.834h62.645v88.747h-61.038l-2.409 61.038-84.329 1.606v-44.173z" />
<glyph unicode="&#xe90f;" glyph-name="mail" horiz-adv-x="1325" d="M220.461 652.398v-504.37c19.275-33.732 20.882-51.802 82.322-52.204h806.751c65.054 0 65.857 14.858 86.739 52.204v504.772c-11.244 16.464-15.661 40.558-64.653 2.811-20.48-15.661-39.755-30.519-58.629-45.377l-236.925-179.501c-88.747-67.062-115.25-104.809-201.186-40.96l-352.577 267.445c-48.188 37.346-53.81 7.228-61.842-4.819zM280.696 770.058c1.205-23.291 13.653-29.315 40.96-51.401 16.866-13.653 35.338-28.11 53.409-41.763l261.421-206.808c42.968-34.535 95.975-37.346 137.738-4.016 20.882 16.464 32.527 26.102 53.007 42.165 36.141 28.511 69.471 55.416 106.416 84.329l183.517 146.171c12.047 10.842 16.464 10.441 17.669 31.724-16.063 7.63-20.48 8.031-43.771 8.031h-767.398c-14.858 0-36.141-0.803-43.771-8.031z" />
<glyph unicode="&#xe942;" glyph-name="telefono2" d="M704 320c-64-64-64-128-128-128s-128 64-192 128-128 128-128 192 64 64 128 128-128 256-192 256-192-192-192-192c0-128 131.5-387.5 256-512s384-256 512-256c0 0 192 128 192 192s-192 256-256 192z" />
<glyph unicode="&#xe9a4;" glyph-name="naturaleza" d="M1011.328 825.504c-110.752 83.928-281.184 134.034-455.91 134.034-216.12 0-392.226-75.456-483.16-207.020-42.708-61.79-66.33-134.958-70.208-217.474-3.454-73.474 8.884-154.726 36.684-242.146 94.874 284.384 359.82 507.102 665.266 507.102 0 0-285.826-75.232-465.524-308.192-0.112-0.138-2.494-3.090-6.614-8.698-36.080-48.278-67.538-103.162-91.078-165.328-39.87-94.83-76.784-224.948-76.784-381.782h128c0 0-19.43 122.222 14.36 262.79 55.89-7.556 105.858-11.306 150.852-11.306 117.678 0 201.37 25.46 263.388 80.124 55.568 48.978 86.198 114.786 118.624 184.456 49.524 106.408 105.654 227.010 268.654 320.152 9.33 5.332 15.362 14.992 16.056 25.716s-4.040 21.080-12.606 27.572z" />
<glyph unicode="&#xf003;" glyph-name="carta" d="M0 100.571v621.714q0 37.714 26.857 64.571t64.571 26.857h841.143q37.714 0 64.571-26.857t26.857-64.571v-621.714q0-37.714-26.857-64.571t-64.571-26.857h-841.143q-37.714 0-64.571 26.857t-26.857 64.571zM73.143 100.571q0-7.429 5.429-12.857t12.857-5.429h841.143q7.429 0 12.857 5.429t5.429 12.857v438.857q-18.286-20.571-39.429-37.714-153.143-117.714-243.429-193.143-29.143-24.571-47.429-38.286t-49.429-27.714-58.571-14h-1.143q-27.429 0-58.571 14t-49.429 27.714-47.429 38.286q-90.286 75.429-243.429 193.143-21.143 17.143-39.429 37.714v-438.857zM73.143 722.286q0-96 84-162.286 110.286-86.857 229.143-181.143 3.429-2.857 20-16.857t26.286-21.429 25.429-18 28.857-15.714 24.571-5.143h1.143q11.429 0 24.571 5.143t28.857 15.714 25.429 18 26.286 21.429 20 16.857q118.857 94.286 229.143 181.143 30.857 24.571 57.429 66t26.571 75.143v14t-0.286 7.429-1.714 7.143-3.143 5.143-5.143 4.286-8 1.429h-841.143q-7.429 0-12.857-5.429t-5.429-12.857z" />
<glyph unicode="&#xf004;" glyph-name="corazon" d="M0 619.429q0 125.714 72.571 196.571t200.571 70.857q35.429 0 72.286-12.286t68.571-33.143 54.571-39.143 43.429-38.857q20.571 20.571 43.429 38.857t54.571 39.143 68.571 33.143 72.286 12.286q128 0 200.571-70.857t72.571-196.571q0-126.286-130.857-257.143l-356-342.857q-10.286-10.286-25.143-10.286t-25.143 10.286l-356.571 344q-5.714 4.571-15.714 14.857t-31.714 37.429-38.857 55.714-30.571 69.143-13.429 78.857z" />
<glyph unicode="&#xf007;" glyph-name="usuario" horiz-adv-x="805" d="M0 157.143q0 30.286 2 59.143t8 62.286 15.143 62 24.571 55.714 35.429 46.286 48.857 30.571 63.714 11.429q5.143 0 24-12.286t42.571-27.429 61.714-27.429 76.286-12.286 76.286 12.286 61.714 27.429 42.571 27.429 24 12.286q34.857 0 63.714-11.429t48.857-30.571 35.429-46.286 24.571-55.714 15.143-62 8-62.286 2-59.143q0-68.571-41.714-108.286t-110.857-39.714h-499.429q-69.143 0-110.857 39.714t-41.714 108.286zM182.857 667.429q0 90.857 64.286 155.143t155.143 64.286 155.143-64.286 64.286-155.143-64.286-155.143-155.143-64.286-155.143 64.286-64.286 155.143z" />
<glyph unicode="&#xf00c;" glyph-name="tilde" d="M69.143 429.714q0 22.857 16 38.857l77.714 77.714q16 16 38.857 16t38.857-16l168-168.571 374.857 375.429q16 16 38.857 16t38.857-16l77.714-77.714q16-16 16-38.857t-16-38.857l-491.429-491.429q-16-16-38.857-16t-38.857 16l-284.571 284.571q-16 16-16 38.857z" />
<glyph unicode="&#xf015;" glyph-name="casa" horiz-adv-x="951" d="M14.857 446q0.571 7.714 6.286 12.286l410.857 342.286q18.286 14.857 43.429 14.857t43.429-14.857l139.429-116.571v111.429q0 8 5.143 13.143t13.143 5.143h109.714q8 0 13.143-5.143t5.143-13.143v-233.143l125.143-104q5.714-4.571 6.286-12.286t-4-13.429l-35.429-42.286q-4.571-5.143-12-6.286h-1.714q-7.429 0-12 4l-395.429 329.714-395.429-329.714q-6.857-4.571-13.714-4-7.429 1.143-12 6.286l-35.429 42.286q-4.571 5.714-4 13.429zM146.286 118.857v274.286q0 0.571 0.286 1.714t0.286 1.714l328.571 270.857 328.571-270.857q0.571-1.143 0.571-3.429v-274.286q0-14.857-10.857-25.714t-25.714-10.857h-219.429v219.429h-146.286v-219.429h-219.429q-14.857 0-25.714 10.857t-10.857 25.714z" />
<glyph unicode="&#xf017;" glyph-name="reloj" d="M0 448q0 119.429 58.857 220.286t159.714 159.714 220.286 58.857 220.286-58.857 159.714-159.714 58.857-220.286-58.857-220.286-159.714-159.714-220.286-58.857-220.286 58.857-159.714 159.714-58.857 220.286zM128 448q0-84.571 41.714-156t113.143-113.143 156-41.714 156 41.714 113.143 113.143 41.714 156-41.714 156-113.143 113.143-156 41.714-156-41.714-113.143-113.143-41.714-156zM292.571 393.143v36.571q0 8 5.143 13.143t13.143 5.143h128v201.143q0 8 5.143 13.143t13.143 5.143h36.571q8 0 13.143-5.143t5.143-13.143v-256q0-8-5.143-13.143t-13.143-5.143h-182.857q-8 0-13.143 5.143t-5.143 13.143z" />
<glyph unicode="&#xf018;" glyph-name="rutas" horiz-adv-x="1097" d="M28.571 124q0 30.857 14.857 66.286l238.286 596.571q4.571 10.857 14.857 18.857t21.714 8h193.714q-7.429 0-13.143-5.429t-6.286-12.857l-8.571-109.714q-0.571-8 4.571-13.143t12.571-5.143h94.857q7.429 0 12.571 5.143t4.571 13.143l-8.571 109.714q-0.571 7.429-6.286 12.857t-13.143 5.429h193.714q11.429 0 21.714-8t14.857-18.857l238.286-596.571q14.857-35.429 14.857-66.286 0-41.714-26.286-41.714h-402.286q7.429 0 12.571 5.429t4.571 12.857l-11.429 146.286q-0.571 7.429-6.286 12.857t-13.143 5.429h-155.429q-7.429 0-13.143-5.429t-6.286-12.857l-11.429-146.286q-0.571-7.429 4.571-12.857t12.571-5.429h-402.286q-26.286 0-26.286 41.714zM462.286 390.857q-0.571-6.857 4.571-11.429t12-4.571h139.429q6.857 0 12 4.571t4.571 11.429v2.286l-13.714 182.857q-0.571 7.429-6.286 12.857t-13.143 5.429h-106.286q-7.429 0-13.143-5.429t-6.286-12.857l-13.714-182.857v-2.286z" />
<glyph unicode="&#xf019;" glyph-name="ruta" horiz-adv-x="1097" d="M28.571 124q0 30.857 14.857 66.286l238.286 596.571q4.571 10.857 14.857 18.857t21.714 8h193.714q-7.429 0-13.143-5.429t-6.286-12.857l-8.571-109.714q-0.571-8 4.571-13.143t12.571-5.143h94.857q7.429 0 12.571 5.143t4.571 13.143l-8.571 109.714q-0.571 7.429-6.286 12.857t-13.143 5.429h193.714q11.429 0 21.714-8t14.857-18.857l238.286-596.571q14.857-35.429 14.857-66.286 0-41.714-26.286-41.714h-402.286q7.429 0 12.571 5.429t4.571 12.857l-11.429 146.286q-0.571 7.429-6.286 12.857t-13.143 5.429h-155.429q-7.429 0-13.143-5.429t-6.286-12.857l-11.429-146.286q-0.571-7.429 4.571-12.857t12.571-5.429h-402.286q-26.286 0-26.286 41.714zM462.286 390.857q-0.571-6.857 4.571-11.429t12-4.571h139.429q6.857 0 12 4.571t4.571 11.429v2.286l-13.714 182.857q-0.571 7.429-6.286 12.857t-13.143 5.429h-106.286q-7.429 0-13.143-5.429t-6.286-12.857l-13.714-182.857v-2.286z" />
<glyph unicode="&#xf02c;" glyph-name="reserva" horiz-adv-x="1097" d="M0 576v237.714q0 29.714 21.714 51.429t51.429 21.714h237.714q30.286 0 66.857-15.143t58.286-36.857l408.571-408q21.143-22.286 21.143-52 0-30.286-21.143-51.429l-280.571-281.143q-22.286-21.143-52-21.143-30.286 0-51.429 21.143l-408.571 409.143q-21.714 21.143-36.857 57.714t-15.143 66.857zM109.714 704q0-30.286 21.429-51.714t51.714-21.429 51.714 21.429 21.429 51.714-21.429 51.714-51.714 21.429-51.714-21.429-21.429-51.714zM402.286 886.857h128q30.286 0 66.857-15.143t58.286-36.857l408.571-408q21.143-22.286 21.143-52 0-30.286-21.143-51.429l-280.571-281.143q-22.286-21.143-52-21.143-20.571 0-33.714 8t-30.286 25.714l268.571 268.571q21.143 21.143 21.143 51.429 0 29.714-21.143 52l-408.571 408q-21.714 21.714-58.286 36.857t-66.857 15.143z" />
<glyph unicode="&#xf02d;" glyph-name="tarifa" horiz-adv-x="1097" d="M0 576v237.714q0 29.714 21.714 51.429t51.429 21.714h237.714q30.286 0 66.857-15.143t58.286-36.857l408.571-408q21.143-22.286 21.143-52 0-30.286-21.143-51.429l-280.571-281.143q-22.286-21.143-52-21.143-30.286 0-51.429 21.143l-408.571 409.143q-21.714 21.143-36.857 57.714t-15.143 66.857zM109.714 704q0-30.286 21.429-51.714t51.714-21.429 51.714 21.429 21.429 51.714-21.429 51.714-51.714 21.429-51.714-21.429-21.429-51.714zM402.286 886.857h128q30.286 0 66.857-15.143t58.286-36.857l408.571-408q21.143-22.286 21.143-52 0-30.286-21.143-51.429l-280.571-281.143q-22.286-21.143-52-21.143-20.571 0-33.714 8t-30.286 25.714l268.571 268.571q21.143 21.143 21.143 51.429 0 29.714-21.143 52l-408.571 408q-21.714 21.714-58.286 36.857t-66.857 15.143z" />
<glyph unicode="&#xf030;" glyph-name="photo" horiz-adv-x="1097" d="M0 155.429v512q0 60.571 42.857 103.429t103.429 42.857h128l29.143 77.714q10.857 28 39.714 48.286t59.143 20.286h292.571q30.286 0 59.143-20.286t39.714-48.286l29.143-77.714h128q60.571 0 103.429-42.857t42.857-103.429v-512q0-60.571-42.857-103.429t-103.429-42.857h-804.571q-60.571 0-103.429 42.857t-42.857 103.429zM292.571 411.429q0-105.714 75.143-180.857t180.857-75.143 180.857 75.143 75.143 180.857-75.143 180.857-180.857 75.143-180.857-75.143-75.143-180.857zM384 411.429q0 68 48.286 116.286t116.286 48.286 116.286-48.286 48.286-116.286-48.286-116.286-116.286-48.286-116.286 48.286-48.286 116.286z" />
<glyph unicode="&#xf03d;" glyph-name="video" d="M0 246.857v402.286q0 68 48.286 116.286t116.286 48.286h402.286q68 0 116.286-48.286t48.286-116.286v-94.286l230.286 229.714q10.286 10.857 25.714 10.857 6.857 0 14.286-2.857 22.286-9.714 22.286-33.714v-621.714q0-24-22.286-33.714-7.429-2.857-14.286-2.857-15.429 0-25.714 10.857l-230.286 230.286v-94.857q0-68-48.286-116.286t-116.286-48.286h-402.286q-68 0-116.286 48.286t-48.286 116.286z" />
<glyph unicode="&#xf03e;" glyph-name="galeria" horiz-adv-x="1097" d="M0 100.571v694.857q0 37.714 26.857 64.571t64.571 26.857h914.286q37.714 0 64.571-26.857t26.857-64.571v-694.857q0-37.714-26.857-64.571t-64.571-26.857h-914.286q-37.714 0-64.571 26.857t-26.857 64.571zM73.143 100.571q0-7.429 5.429-12.857t12.857-5.429h914.286q7.429 0 12.857 5.429t5.429 12.857v694.857q0 7.429-5.429 12.857t-12.857 5.429h-914.286q-7.429 0-12.857-5.429t-5.429-12.857v-694.857zM146.286 155.429v109.714l182.857 182.857 91.429-91.429 292.571 292.571 237.714-237.714v-256h-804.571zM146.286 630.857q0 45.714 32 77.714t77.714 32 77.714-32 32-77.714-32-77.714-77.714-32-77.714 32-32 77.714z" />
<glyph unicode="&#xf041;" glyph-name="ubicacion" horiz-adv-x="585" d="M0 594.286q0 121.143 85.714 206.857t206.857 85.714 206.857-85.714 85.714-206.857q0-62.286-18.857-102.286l-208-442.286q-9.143-18.857-27.143-29.714t-38.571-10.857-38.571 10.857-26.571 29.714l-208.571 442.286q-18.857 40-18.857 102.286zM146.286 594.286q0-60.571 42.857-103.429t103.429-42.857 103.429 42.857 42.857 103.429-42.857 103.429-103.429 42.857-103.429-42.857-42.857-103.429z" />
<glyph unicode="&#xf044;" glyph-name="reservar" d="M0 246.857v475.429q0 68 48.286 116.286t116.286 48.286h475.429q36 0 66.857-14.286 8.571-4 10.286-13.143 1.714-9.714-5.143-16.571l-28-28q-8-8-18.286-4.571-13.143 3.429-25.714 3.429h-475.429q-37.714 0-64.571-26.857t-26.857-64.571v-475.429q0-37.714 26.857-64.571t64.571-26.857h475.429q37.714 0 64.571 26.857t26.857 64.571v72q0 7.429 5.143 12.571l36.571 36.571q8.571 8.571 20 4t11.429-16.571v-108.571q0-68-48.286-116.286t-116.286-48.286h-475.429q-68 0-116.286 48.286t-48.286 116.286zM365.714 228.571v164.571l384 384 164.571-164.571-384-384h-164.571zM420.571 338.286h54.857v-54.857h32l66.286 66.286-86.857 86.857-66.286-66.286v-32zM539.429 475.429q9.143-9.143 18.857 0.571l200 200q9.714 9.714 0.571 18.857t-18.857-0.571l-200-200q-9.714-9.714-0.571-18.857zM786.286 813.714l52.571 52.571q16 16 38.857 16t38.857-16l86.857-86.857q16-16 16-38.857t-16-38.857l-52.571-52.571z" />
<glyph unicode="&#xf053;" glyph-name="left" horiz-adv-x="731" d="M88 484.571q0 14.857 10.857 25.714l424 424q10.857 10.857 25.714 10.857t25.714-10.857l94.857-94.857q10.857-10.857 10.857-25.714t-10.857-25.714l-303.429-303.429 303.429-303.429q10.857-10.857 10.857-25.714t-10.857-25.714l-94.857-94.857q-10.857-10.857-25.714-10.857t-25.714 10.857l-424 424q-10.857 10.857-10.857 25.714z" />
<glyph unicode="&#xf054;" glyph-name="right" horiz-adv-x="731" d="M51.429 155.429q0 14.857 10.857 25.714l303.429 303.429-303.429 303.429q-10.857 10.857-10.857 25.714t10.857 25.714l94.857 94.857q10.857 10.857 25.714 10.857t25.714-10.857l424-424q10.857-10.857 10.857-25.714t-10.857-25.714l-424-424q-10.857-10.857-25.714-10.857t-25.714 10.857l-94.857 94.857q-10.857 10.857-10.857 25.714z" />
<glyph unicode="&#xf073;" glyph-name="agenda" horiz-adv-x="951" d="M0 9.143v731.429q0 29.714 21.714 51.429t51.429 21.714h73.143v54.857q0 37.714 26.857 64.571t64.571 26.857h36.571q37.714 0 64.571-26.857t26.857-64.571v-54.857h219.429v54.857q0 37.714 26.857 64.571t64.571 26.857h36.571q37.714 0 64.571-26.857t26.857-64.571v-54.857h73.143q29.714 0 51.429-21.714t21.714-51.429v-731.429q0-29.714-21.714-51.429t-51.429-21.714h-804.571q-29.714 0-51.429 21.714t-21.714 51.429zM73.143 9.143h164.571v164.571h-164.571v-164.571zM73.143 210.286h164.571v182.857h-164.571v-182.857zM73.143 429.714h164.571v164.571h-164.571v-164.571zM219.429 704q0-7.429 5.429-12.857t12.857-5.429h36.571q7.429 0 12.857 5.429t5.429 12.857v164.571q0 7.429-5.429 12.857t-12.857 5.429h-36.571q-7.429 0-12.857-5.429t-5.429-12.857v-164.571zM274.286 9.143h182.857v164.571h-182.857v-164.571zM274.286 210.286h182.857v182.857h-182.857v-182.857zM274.286 429.714h182.857v164.571h-182.857v-164.571zM493.714 9.143h182.857v164.571h-182.857v-164.571zM493.714 210.286h182.857v182.857h-182.857v-182.857zM493.714 429.714h182.857v164.571h-182.857v-164.571zM658.286 704q0-7.429 5.429-12.857t12.857-5.429h36.571q7.429 0 12.857 5.429t5.429 12.857v164.571q0 7.429-5.429 12.857t-12.857 5.429h-36.571q-7.429 0-12.857-5.429t-5.429-12.857v-164.571zM713.143 9.143h164.571v164.571h-164.571v-164.571zM713.143 210.286h164.571v182.857h-164.571v-182.857zM713.143 429.714h164.571v164.571h-164.571v-164.571z" />
<glyph unicode="&#xf083;" glyph-name="camara" d="M0 82.286v731.429q0 30.286 21.429 51.714t51.714 21.429h877.714q30.286 0 51.714-21.429t21.429-51.714v-731.429q0-30.286-21.429-51.714t-51.714-21.429h-877.714q-30.286 0-51.714 21.429t-21.429 51.714zM73.143 82.286h877.714v73.143h-877.714v-73.143zM73.143 667.429h877.714v146.286h-473.143l-36.571-73.143h-368v-73.143zM146.286 777.143h219.429v73.143h-219.429v-73.143zM292.571 410.286q0-90.857 64.286-155.143t155.143-64.286 155.143 64.286 64.286 155.143-64.286 155.143-155.143 64.286-155.143-64.286-64.286-155.143zM365.714 410.286q0 60.571 42.857 103.429t103.429 42.857 103.429-42.857 42.857-103.429-42.857-103.429-103.429-42.857-103.429 42.857-42.857 103.429zM420.571 411.429q0-8 5.143-13.143t13.143-5.143 13.143 5.143 5.143 13.143q0 22.857 16 38.857t38.857 16q8 0 13.143 5.143t5.143 13.143-5.143 13.143-13.143 5.143q-37.714 0-64.571-26.857t-26.857-64.571z" />
<glyph unicode="&#xf098;" glyph-name="telefono" d="M0 173.714v548.571q0 68 48.286 116.286t116.286 48.286h548.571q68 0 116.286-48.286t48.286-116.286v-548.571q0-68-48.286-116.286t-116.286-48.286h-548.571q-68 0-116.286 48.286t-48.286 116.286zM146.286 599.429q0-9.143 1.429-19.429t2.857-17.429 5.143-18.857 5.714-16.857 7.143-18.857 6.286-17.143q34.286-93.714 123.714-183.143t183.143-123.714q3.429-1.143 17.143-6.286t18.857-7.143 16.857-5.714 18.857-5.143 17.429-2.857 19.429-1.429q32.571 0 74.571 19.429t54 45.714q12.571 30.286 12.571 57.714 0 6.286-1.143 9.143-1.714 4.571-22 16.857t-50.571 28.286l-30.286 16.571q-2.857 1.714-10.857 7.429t-14.286 8.571-12 2.857q-10.286 0-26.857-18.571t-32.571-37.429-25.143-18.857q-4 0-9.429 2t-8.857 3.714-9.714 5.429-8 4.857q-56.571 31.429-97.429 72.286t-72.286 97.429q-1.143 1.714-4.857 8t-5.429 9.714-3.714 8.857-2 9.429q0 7.429 11.714 19.143t25.714 22 25.714 22.571 11.714 20.857q0 5.714-2.857 12t-8.571 14.286-7.429 10.857q-1.714 3.429-8.571 16.286t-14.286 26-15.143 27.143-14.286 23.143-9.429 10.286-9.143 1.143q-27.429 0-57.714-12.571-26.286-12-45.714-54t-19.429-74.571z" />
<glyph unicode="&#xf099;" glyph-name="twitter" horiz-adv-x="951" d="M25.143 165.143q20-2.286 44.571-2.286 128.571 0 229.143 78.857-60 1.143-107.429 36.857t-65.143 91.143q18.857-2.857 34.857-2.857 24.571 0 48.571 6.286-64 13.143-106 63.714t-42 117.429v2.286q38.857-21.714 83.429-23.429-37.714 25.143-60 65.714t-22.286 88q0 50.286 25.143 93.143 69.143-85.143 168.286-136.286t212.286-56.857q-4.571 21.714-4.571 42.286 0 76.571 54 130.571t130.571 54q80 0 134.857-58.286 62.286 12 117.143 44.571-21.143-65.714-81.143-101.714 53.143 5.714 106.286 28.571-38.286-56-92.571-95.429 0.571-8 0.571-24 0-74.286-21.714-148.286t-66-142-105.429-120.286-147.429-83.429-184.571-31.143q-154.857 0-283.429 82.857z" />
<glyph unicode="&#xf09a;" glyph-name="facebook" horiz-adv-x="585" d="M54.286 442.857v169.143h145.714v124.571q0 106.286 59.429 164.857t158.286 58.571q84 0 130.286-6.857v-150.857h-89.714q-49.143 0-66.286-20.571t-17.143-61.714v-108h167.429l-22.286-169.143h-145.143v-433.714h-174.857v433.714h-145.714z" />
<glyph unicode="&#xf0d5;" glyph-name="google-plus" horiz-adv-x="951" d="M18.286 186.286q0 46.286 25.429 85.714t67.714 65.714q74.857 46.857 230.857 57.143-18.286 24-27.143 42.286t-8.857 41.714q0 20.571 12 48.571-26.286-2.286-38.857-2.286-84.571 0-142.571 55.143t-58 139.714q0 46.857 20.571 90.857t56.571 74.857q44 37.714 104.286 56t124.286 18.286h238.857l-78.857-50.286h-74.857q42.286-36 64-76t21.714-91.429q0-41.143-14-74t-33.714-53.143-39.714-37.143-34-35.143-14-37.714q0-20.571 18.286-40.286t44.286-38.857 51.714-42 44-59.429 18.286-81.143q0-51.429-27.429-98.857-41.143-69.714-120.571-102.571t-170.286-32.857q-75.429 0-140.857 23.714t-98 78.571q-21.143 34.286-21.143 74.857zM124.571 212.571q0-40 20-70.571t52.286-47.429 68-25.143 72.857-8.286q33.143 0 63.714 7.429t56.571 22.286 41.714 41.714 15.714 62.286q0 14.286-4 28t-8.286 24-15.429 23.714-16.857 20-22 19.714-20.857 16.571-23.714 17.143-20.857 14.857q-9.143 1.143-27.429 1.143-30.286 0-60-4t-61.429-14.286-55.429-26.286-39.143-42.571-15.429-60.286zM185.143 780.571q0-26.286 5.714-55.714t18-58.857 29.714-52.857 42.857-38.286 55.143-14.857q21.714 0 44.571 9.429t37.714 24.857q30.286 32.571 30.286 90.857 0 33.143-9.714 71.429t-27.714 74-48.286 59.143-66.857 23.429q-24 0-47.143-11.143t-37.429-30q-26.857-33.714-26.857-91.429zM619.429 500v61.714h121.143v124h60v-124h121.714v-61.714h-121.714v-125.143h-60v125.143h-121.143z" />
<glyph unicode="&#xf0f4;" glyph-name="desayuno" horiz-adv-x="1097" d="M0 155.429h1024q0-60.571-42.857-103.429t-103.429-42.857h-731.429q-60.571 0-103.429 42.857t-42.857 103.429zM146.286 356.571v420.571q0 14.857 10.857 25.714t25.714 10.857h658.286q90.857 0 155.143-64.286t64.286-155.143-64.286-155.143-155.143-64.286h-36.571v-18.286q0-52.571-37.714-90.286t-90.286-37.714h-402.286q-52.571 0-90.286 37.714t-37.714 90.286zM804.571 484.571h36.571q45.714 0 77.714 32t32 77.714-32 77.714-77.714 32h-36.571v-219.429z" />
<glyph unicode="&#xf0f5;" glyph-name="lunch" horiz-adv-x="805" d="M0 557.714v365.714q0 14.857 10.857 25.714t25.714 10.857 25.714-10.857 10.857-25.714v-237.714q0-14.857 10.857-25.714t25.714-10.857 25.714 10.857 10.857 25.714v237.714q0 14.857 10.857 25.714t25.714 10.857 25.714-10.857 10.857-25.714v-237.714q0-14.857 10.857-25.714t25.714-10.857 25.714 10.857 10.857 25.714v237.714q0 14.857 10.857 25.714t25.714 10.857 25.714-10.857 10.857-25.714v-365.714q0-34.857-20.286-63.429t-52.857-40v-445.143q0-29.714-21.714-51.429t-51.429-21.714h-73.143q-29.714 0-51.429 21.714t-21.714 51.429v445.143q-32.571 11.429-52.857 40t-20.286 63.429zM438.857 320v457.143q0 75.429 53.714 129.143t129.143 53.714h146.286q14.857 0 25.714-10.857t10.857-25.714v-914.286q0-29.714-21.714-51.429t-51.429-21.714h-73.143q-29.714 0-51.429 21.714t-21.714 51.429v292.571h-128q-7.429 0-12.857 5.429t-5.429 12.857z" />
<glyph unicode="&#xf10e;" glyph-name="comentar" horiz-adv-x="951" d="M0 557.714v219.429q0 45.714 32 77.714t77.714 32h219.429q45.714 0 77.714-32t32-77.714v-402.286q0-59.429-23.143-113.429t-62.571-93.429-93.429-62.571-113.429-23.143h-36.571q-14.857 0-25.714 10.857t-10.857 25.714v73.143q0 14.857 10.857 25.714t25.714 10.857h36.571q60.571 0 103.429 42.857t42.857 103.429v18.286q0 22.857-16 38.857t-38.857 16h-128q-45.714 0-77.714 32t-32 77.714zM512 557.714v219.429q0 45.714 32 77.714t77.714 32h219.429q45.714 0 77.714-32t32-77.714v-402.286q0-59.429-23.143-113.429t-62.571-93.429-93.429-62.571-113.429-23.143h-36.571q-14.857 0-25.714 10.857t-10.857 25.714v73.143q0 14.857 10.857 25.714t25.714 10.857h36.571q60.571 0 103.429 42.857t42.857 103.429v18.286q0 22.857-16 38.857t-38.857 16h-128q-45.714 0-77.714 32t-32 77.714z" />
<glyph unicode="&#xf133;" glyph-name="calendario" horiz-adv-x="951" d="M0 9.143v731.429q0 29.714 21.714 51.429t51.429 21.714h73.143v54.857q0 37.714 26.857 64.571t64.571 26.857h36.571q37.714 0 64.571-26.857t26.857-64.571v-54.857h219.429v54.857q0 37.714 26.857 64.571t64.571 26.857h36.571q37.714 0 64.571-26.857t26.857-64.571v-54.857h73.143q29.714 0 51.429-21.714t21.714-51.429v-731.429q0-29.714-21.714-51.429t-51.429-21.714h-804.571q-29.714 0-51.429 21.714t-21.714 51.429zM73.143 9.143h804.571v585.143h-804.571v-585.143zM219.429 704q0-8 5.143-13.143t13.143-5.143h36.571q8 0 13.143 5.143t5.143 13.143v164.571q0 8-5.143 13.143t-13.143 5.143h-36.571q-8 0-13.143-5.143t-5.143-13.143v-164.571zM658.286 704q0-8 5.143-13.143t13.143-5.143h36.571q8 0 13.143 5.143t5.143 13.143v164.571q0 8-5.143 13.143t-13.143 5.143h-36.571q-8 0-13.143-5.143t-5.143-13.143v-164.571z" />
<glyph unicode="&#xf164;" glyph-name="ok" horiz-adv-x="951" d="M0 118.857v365.714q0 14.857 10.857 25.714t25.714 10.857h164.571q14.857 0 25.714-10.857t10.857-25.714v-365.714q0-14.857-10.857-25.714t-25.714-10.857h-164.571q-14.857 0-25.714 10.857t-10.857 25.714zM73.143 192q0-15.429 10.571-26t26-10.571q14.857 0 25.714 10.571t10.857 26q0 14.857-10.857 25.714t-25.714 10.857q-15.429 0-26-10.857t-10.571-25.714zM274.286 118.857v366.286q0 14.286 10.286 24.857t24.571 11.714q13.714 1.143 43.429 33.714t57.714 69.143q38.857 49.714 57.714 68.571 10.286 10.286 17.714 27.429t10 27.714 7.714 34.571q4 22.286 7.143 34.857t11.143 29.714 19.429 28.571q10.857 10.857 25.714 10.857 26.286 0 47.143-6t34.286-14.857 22.857-23.143 13.714-25.714 6.857-28.571 2.857-25.714 0.286-22.286q0-21.714-5.429-43.429t-10.857-34.286-15.714-32q-1.714-3.429-5.714-10.286t-6.286-12.571-4.571-13.714h158.286q44.571 0 77.143-32.571t32.571-77.143q0-49.143-31.429-85.143 8.571-25.143 8.571-43.429 1.714-43.429-24.571-78.286 9.714-32 0-66.857-8.571-32.571-30.857-53.714 5.143-64-28-103.429-36.571-43.429-112.571-44.571h-73.714q-37.714 0-82.286 8.857t-69.429 16.571-68.857 22.571q-70.286 24.571-90.286 25.143-14.857 0.571-25.714 11.143t-10.857 25.429z" />
<glyph unicode="&#xf165;" glyph-name="bad" horiz-adv-x="951" d="M0 338.286q0-14.857 10.857-25.714t25.714-10.857h164.571q14.857 0 25.714 10.857t10.857 25.714v365.714q0 14.857-10.857 25.714t-25.714 10.857h-164.571q-14.857 0-25.714-10.857t-10.857-25.714v-365.714zM73.143 630.857q0 15.429 10.571 26t26 10.571q14.857 0 25.714-10.571t10.857-26q0-14.857-10.857-25.714t-25.714-10.857q-15.429 0-26 10.857t-10.571 25.714zM274.286 337.714v366.286q0 14.857 10.857 25.429t25.714 11.143q20 0.571 90.286 25.143 44 14.857 68.857 22.571t69.429 16.571 82.286 8.857h73.714q76-1.143 112.571-44.571 33.143-39.429 28-103.429 22.286-21.143 30.857-53.714 9.714-34.857 0-66.857 26.286-34.857 24.571-78.286 0-18.286-8.571-43.429 31.429-34.857 31.429-85.143-0.571-44.571-32.857-77.143t-76.857-32.571h-158.286q2.286-8 4.571-13.714t6.286-12.571 5.714-10.286q10.286-21.143 15.429-32.571t10.857-33.429 5.714-43.714q0-13.714-0.286-22.286t-2.857-25.714-6.857-28.571-13.714-25.714-22.857-23.143-34.286-14.857-47.143-6q-14.857 0-25.714 10.857-11.429 11.429-19.429 28.571t-11.143 29.714-7.143 34.857q-5.143 24-7.714 34.571t-10 27.714-17.714 27.429q-18.857 18.857-57.714 68.571-28 36.571-57.714 69.143t-43.429 33.714q-14.286 1.143-24.571 11.714t-10.286 24.857z" />
<glyph unicode="&#xf167;" glyph-name="youtube" d="M15.429 230.857q0 133.714 14.857 200 8 33.714 33.143 56.571t58.857 26.857q104.571 11.429 316.571 11.429t317.143-11.429q33.143-4 58.571-26.857t32.857-56.571q14.857-64 14.857-200 0-133.714-14.857-200-8-33.714-33.143-56.571t-58.286-26.286q-105.143-12-317.143-12t-317.143 12q-33.143 3.429-58.571 26.286t-32.857 56.571q-14.857 64-14.857 200zM78.857 373.143h60v-325.143h57.143v325.143h61.143v53.714h-178.286v-53.714zM152 960h60.571l40.571-150.286 38.857 150.286h58.286l-69.143-228v-154.857h-57.143v154.857q-8 42.286-34.857 121.143-21.143 58.857-37.143 106.857zM264.571 106.857q0-28 4.571-41.714 6.857-21.143 33.143-21.143 27.429 0 58.286 34.857v-30.857h50.857v282.286h-50.857v-216q-17.143-24-32.571-24-10.286 0-12 12-0.571 1.714-0.571 20v208h-50.857v-223.429zM350.857 669.714v100q0 45.714 16 66.857 21.714 29.143 60 29.143 39.429 0 60.571-29.143 16-21.143 16-66.857v-100q0-46.286-16-67.429-21.143-29.143-60.571-29.143-38.286 0-60 29.143-16 21.714-16 67.429zM402.286 660q0-40 24.571-40t24.571 40v120q0 39.429-24.571 39.429t-24.571-39.429v-120zM456 48h50.857v27.429q25.714-31.429 53.143-31.429 30.857 0 40.571 31.429 5.143 15.429 5.143 57.143v112.571q0 41.714-5.143 56.571-9.714 32-40.571 32-28.571 0-53.143-30.857v124h-50.857v-378.857zM506.857 102.857v172q12.571 12.571 25.714 12.571 22.286 0 22.286-38.286v-120.571q0-38.286-22.286-38.286-13.143 0-25.714 12.571zM545.714 637.143v225.143h52v-209.714q0-18.857 0.571-20 1.714-12.571 12-12.571 15.429 0 32.571 24.571v217.714h52v-285.143h-52v31.429q-30.286-35.429-58.857-35.429-26.286 0-33.714 21.143-4.571 13.714-4.571 42.857zM645.714 139.429q0-45.143 16.571-66.286 22.286-29.143 61.714-29.143 41.143 0 61.714 30.286 10.286 15.429 12 30.857 1.143 5.143 1.143 33.143v7.429h-52q0-29.143-1.143-34.857-4-20.571-22.857-20.571-26.286 0-26.286 39.429v49.714h102.286v58.857q0 45.143-15.429 66.286-22.286 29.143-60.571 29.143-38.857 0-61.143-29.143-16-21.143-16-66.286v-98.857zM696.571 222.286v26.286q0 38.857 25.714 38.857t25.714-38.857v-26.286h-51.429z" />
<glyph unicode="&#xf16d;" glyph-name="instagram" d="M0 121.714v652.571q0 46.286 33.143 79.429t79.429 33.143h652.571q46.286 0 79.429-33.143t33.143-79.429v-652.571q0-46.286-33.143-79.429t-79.429-33.143h-652.571q-46.286 0-79.429 33.143t-33.143 79.429zM97.714 145.143q0-14.857 10-24.857t24.857-10h610.857q14.286 0 24.571 10t10.286 24.857v370.286h-77.143q11.429-36 11.429-74.857 0-72-36.571-132.857t-99.429-96.286-137.143-35.429q-112.571 0-192.571 77.429t-80 187.143q0 38.857 11.429 74.857h-80.571v-370.286zM263.429 449.714q0-70.857 51.714-120.857t124.286-50q73.143 0 124.857 50t51.714 120.857-51.714 120.857-124.857 50q-72.571 0-124.286-50t-51.714-120.857zM600 655.429q0-16.571 11.429-28t28-11.429h99.429q16.571 0 28 11.429t11.429 28v94.286q0 16-11.429 27.714t-28 11.714h-99.429q-16.571 0-28-11.714t-11.429-27.714v-94.286z" />
<glyph unicode="&#xf180;" glyph-name="uniF180" horiz-adv-x="951" d="M0 448q0 42.857 30.286 73.143l335.429 335.429q30.286 30.286 73.143 30.286t73.143-30.286l151.429-151.429-227.429-228-107.429 107.429q-24 24-56.571 24-33.714 0-57.143-23.429l-68.571-69.143q-24-22.857-24-56.571 0-33.143 24-57.143l232-233.143q17.143-16 38.286-21.143l3.429-2.286h16q34.286 0 56.571 23.429l353.714 353.714 1.143-1.714q30.286-30.286 30.286-73.143t-30.286-73.143l-335.429-335.429q-29.714-30.286-72.857-30.286t-73.429 30.286l-335.429 335.429q-30.286 30.286-30.286 73.143zM172.571 459.429q0 12 8 20l69.143 68.571q7.429 8.571 20 8.571t20.571-8.571l144-144 328 328.571q8.571 8.571 20.571 8.571t20.571-8.571l68.571-68.571q8-8.571 8-20.571t-8-20.571l-417.143-417.143q-9.714-8.571-21.143-8.571-2.286 0-3.429 0.571-10.286 1.143-17.143 8l-232.571 233.143q-8 8.571-8 20.571z" />
<glyph unicode="&#xf1bb;" glyph-name="pino" d="M18.286 118.857q0 14.857 10.857 25.714l229.714 230.286h-130.857q-14.857 0-25.714 10.857t-10.857 25.714 10.857 25.714l229.714 230.286h-112.571q-14.857 0-25.714 10.857t-10.857 25.714 10.857 25.714l219.429 219.429q10.857 10.857 25.714 10.857t25.714-10.857l219.429-219.429q10.857-10.857 10.857-25.714t-10.857-25.714-25.714-10.857h-112.571l229.714-230.286q10.857-10.857 10.857-25.714t-10.857-25.714-25.714-10.857h-130.857l229.714-230.286q10.857-10.857 10.857-25.714t-10.857-25.714-25.714-10.857h-264q0.571-9.714 3.429-50t2.857-62q0-14.286-10.286-24.286t-24.571-10h-182.857q-14.286 0-24.571 10t-10.286 24.286q0 21.714 2.857 62t3.429 50h-264q-14.857 0-25.714 10.857t-10.857 25.714z" />
</font>
</defs>
</svg>
